<?xml version="1.0" encoding="UTF-8" standalone="no"?>
<svg
   xmlns:dc="http://purl.org/dc/elements/1.1/"
   xmlns:cc="http://creativecommons.org/ns#"
   xmlns:rdf="http://www.w3.org/1999/02/22-rdf-syntax-ns#"
   xmlns:svg="http://www.w3.org/2000/svg"
   xmlns="http://www.w3.org/2000/svg"
   xmlns:sodipodi="http://sodipodi.sourceforge.net/DTD/sodipodi-0.dtd"
   xmlns:inkscape="http://www.inkscape.org/namespaces/inkscape"
   height="512pt"
   version="1.1"
   viewBox="-37 0 512 512"
   width="512pt"
   id="svg11"
   sodipodi:docname="database (copy).svg"
   inkscape:version="1.0.2 (394de47547, 2021-03-26)">
  <metadata
     id="metadata17">
    <rdf:RDF>
      <cc:Work
         rdf:about="">
        <dc:format>image/svg+xml</dc:format>
        <dc:type
           rdf:resource="http://purl.org/dc/dcmitype/StillImage" />
      </cc:Work>
    </rdf:RDF>
  </metadata>
  <defs
     id="defs15" />
  <sodipodi:namedview
     pagecolor="#ffffff"
     bordercolor="#666666"
     borderopacity="1"
     objecttolerance="10"
     gridtolerance="10"
     guidetolerance="10"
     inkscape:pageopacity="0"
     inkscape:pageshadow="2"
     inkscape:window-width="1440"
     inkscape:window-height="836"
     id="namedview13"
     showgrid="false"
     inkscape:zoom="0.70641625"
     inkscape:cx="203.68"
     inkscape:cy="318.52932"
     inkscape:window-x="1366"
     inkscape:window-y="27"
     inkscape:window-maximized="1"
     inkscape:current-layer="surface1" />
  <g
     id="surface1">
    <path
       d="M 438.855469 64 C 438.855469 28.652344 340.617188 0 219.429688 0 C 98.242188 0 0 28.652344 0 64 C 0 99.347656 98.242188 128 219.429688 128 C 340.617188 128 438.855469 99.347656 438.855469 64 Z M 438.855469 64 "
       style="stroke:none;fill-rule:nonzero;fill:#b3b3b3;fill-opacity:1"
       id="path2" />
    <path
       d="M 219.429688 256 C 340.570312 256 438.855469 227.382812 438.855469 192 L 438.855469 64 C 438.855469 99.382812 340.570312 128 219.429688 128 C 98.285156 128 0 99.382812 0 64 L 0 192 C 0 227.382812 98.285156 256 219.429688 256 Z M 219.429688 256 "
       style="stroke:none;fill-rule:nonzero;fill:#808080;fill-opacity:1"
       id="path4" />
    <path
       d="M 219.429688 384 C 340.570312 384 438.855469 355.382812 438.855469 320 L 438.855469 192 C 438.855469 227.382812 340.570312 256 219.429688 256 C 98.285156 256 0 227.382812 0 192 L 0 320 C 0 355.382812 98.285156 384 219.429688 384 Z M 219.429688 384 "
       style="stroke:none;fill-rule:nonzero;fill:#333333;fill-opacity:1"
       id="path6" />
    <path
       d="M 438.855469 320 C 438.855469 355.382812 340.570312 384 219.429688 384 C 98.285156 384 0 355.382812 0 320 L 0 448 C 0 483.382812 98.285156 512 219.429688 512 C 340.570312 512 438.855469 483.382812 438.855469 448 Z M 438.855469 320 "
       style="stroke:none;fill-rule:nonzero;fill:#1a1a1a;fill-opacity:1"
       id="path8" />
  </g>
</svg>
