<?xml version="1.0" encoding="UTF-8" standalone="no"?>
<svg
   xmlns:dc="http://purl.org/dc/elements/1.1/"
   xmlns:cc="http://creativecommons.org/ns#"
   xmlns:rdf="http://www.w3.org/1999/02/22-rdf-syntax-ns#"
   xmlns:svg="http://www.w3.org/2000/svg"
   xmlns="http://www.w3.org/2000/svg"
   xmlns:sodipodi="http://sodipodi.sourceforge.net/DTD/sodipodi-0.dtd"
   xmlns:inkscape="http://www.inkscape.org/namespaces/inkscape"
   version="1.1"
   id="svg114"
   width="500"
   height="500"
   viewBox="0 0 500 500"
   sodipodi:docname="logo.png.svg"
   inkscape:version="1.0.2 (394de47547, 2021-03-26)">
  <metadata
     id="metadata120">
    <rdf:RDF>
      <cc:Work
         rdf:about="">
        <dc:format>image/svg+xml</dc:format>
        <dc:type
           rdf:resource="http://purl.org/dc/dcmitype/StillImage" />
        <dc:title></dc:title>
      </cc:Work>
    </rdf:RDF>
  </metadata>
  <defs
     id="defs118">
    <rect
       x="347.76096"
       y="125.5478"
       width="74.400961"
       height="96.646172"
       id="rect132" />
  </defs>
  <sodipodi:namedview
     pagecolor="#ffffff"
     bordercolor="#666666"
     borderopacity="1"
     objecttolerance="10"
     gridtolerance="10"
     guidetolerance="10"
     inkscape:pageopacity="0"
     inkscape:pageshadow="2"
     inkscape:window-width="1440"
     inkscape:window-height="836"
     id="namedview116"
     showgrid="false"
     inkscape:zoom="0.96449365"
     inkscape:cx="227.29766"
     inkscape:cy="127.13332"
     inkscape:window-x="1366"
     inkscape:window-y="27"
     inkscape:window-maximized="1"
     inkscape:current-layer="g142" />
  <g
     inkscape:groupmode="layer"
     inkscape:label="Image"
     id="g122">
    <path
       style="fill:#000000;stroke-width:0.32212"
       id="path126"
       d="" />
    <g
       id="g142"
       transform="translate(-131.08906,53.50727)">
      <g
         id="g147"
         transform="translate(11.386849,-3.7435142)"
         style="fill:#003380">
        <path
           style="fill:#003380;stroke-width:0.32212"
           d="m 356.37413,280.79263 c -95.83644,-54.62277 -91.53118,-52.10764 -92.30549,-53.92487 -0.65887,-1.54629 -0.65887,-113.31006 0,-114.85636 0.71602,-1.68041 0.53544,-1.57115 36.6021,-22.146349 19.04533,-10.864919 43.10767,-24.595316 53.47187,-30.511993 18.844,-10.757594 18.844,-10.757594 20.61566,-10.622499 2.00452,0.152851 106.81175,59.617021 109.19857,61.955671 l 1.12742,1.10466 v 57.64869 57.64869 l -1.12742,1.10456 c -2.42266,2.37353 -107.68722,62.04164 -109.45186,62.04164 -1.45955,0 -2.68123,-0.6362 -18.13085,-9.44184 z m 68.35199,-30.20237 50.21137,-28.69214 V 169.43283 116.96755 L 425.73371,88.887731 C 398.67163,73.443827 376.08735,60.541207 375.54642,60.215242 c -1.11226,-0.670254 2.95139,-2.921547 -69.8023,38.671074 l -31.80931,18.185094 v 52.36032 52.36031 l 50.17014,28.72636 c 27.59357,15.7995 50.22406,28.73483 50.28997,28.74518 0.0659,0.0103 22.71495,-12.89264 50.3312,-28.67332 z"
           id="path128"
           sodipodi:nodetypes="ssssssscccsssscccssscccsss" />
        <g
           aria-label="R"
           id="text130"
           style="font-style:normal;font-weight:normal;font-size:40px;line-height:1.25;font-family:sans-serif;white-space:pre;shape-inside:url(#rect132);fill:#003380;fill-opacity:1;stroke:none"
           transform="matrix(3.7222805,0,0,3.7977769,-968.04954,-378.03623)">
          <path
             d="m 366.2998,144.65239 c 0.89341,0.30238 1.33229,0.9078 2.17072,1.89743 0.85218,0.98962 1.70436,2.35035 2.55654,4.0822 0,0 3.53295,8.59258 2.26927,8.54704 l -4.51797,-0.16281 -1.9366,-7.86881 c -1.01711,-2.06171 -2.34793,-2.80386 -3.31007,-3.47735 -2.87525,-0.77693 -5.24281,-1.34967 -8.60993,-1.69714 0,0 1.81124,12.66537 0.51871,13.07087 -1.32214,0.41479 -2.93099,0.6239 -4.16466,0 -1.22278,-0.61839 -2.981,-28.0436 -0.31674,-30.9918 0.73623,-0.81469 9.47051,-1.34335 9.47051,-1.34335 3.51866,0 6.59961,1.82825 8.33146,3.29894 1.73183,1.4707 2.38971,4.15129 2.38971,7.12016 0,1.93802 -0.45358,3.54616 -1.36073,4.82442 -0.89341,1.27827 -1.77212,2.20539 -3.49022,2.7002 z m -10.85933,-12.96755 c -2.41811,2.30872 -2.38862,7.3503 -0.2654,9.92258 2.4776,1.74828 7.86546,1.54123 10.03794,-0.37683 1.03086,-0.93465 1.54629,-2.30225 1.54629,-4.10282 0,-1.80056 -0.51543,-3.15442 -1.54629,-4.06158 -1.80486,-2.82524 -8.62781,-2.92684 -9.77254,-1.38135 z"
             id="path136"
             style="fill:#003380;stroke-width:1.0556"
             sodipodi:nodetypes="cccsccccsssssscccccscc" />
        </g>
      </g>
    </g>
  </g>
</svg>
